<svg xmlns="http://www.w3.org/2000/svg" xmlns:xlink="http://www.w3.org/1999/xlink" width="500" zoomAndPan="magnify" viewBox="0 0 375 374.999991" height="500" preserveAspectRatio="xMidYMid meet" version="1.0"><defs><clipPath id="2ca6de98ee"><path d="M 11 8.867188 L 365.957031 8.867188 L 365.957031 216 L 11 216 Z M 11 8.867188 " clip-rule="nonzero"/></clipPath><clipPath id="5e3ada8cfc"><path d="M 9 173 L 365.957031 173 L 365.957031 367 L 9 367 Z M 9 173 " clip-rule="nonzero"/></clipPath></defs><g clip-path="url(#2ca6de98ee)"><path fill="#22cc9d" d="M 187.140625 8.710938 C 282.929688 8.710938 361.179688 83.8125 365.949219 178.523438 L 351.738281 202.988281 C 349.308594 207.214844 346.609375 211.625 343.640625 215.851562 C 345.261719 206.675781 346.070312 197.234375 346.070312 187.699219 C 346.070312 99.824219 275.015625 28.589844 187.140625 28.589844 C 105.019531 28.589844 37.382812 91.007812 29.109375 170.96875 C 26.320312 168.359375 23.441406 165.84375 20.832031 163.054688 L 11.660156 153.429688 C 27.488281 70.953125 99.984375 8.710938 187.140625 8.710938 Z M 187.140625 8.710938 " fill-opacity="1" fill-rule="nonzero"/></g><g clip-path="url(#5e3ada8cfc)"><path fill="#22cc9d" d="M 365.410156 210.722656 C 365.410156 210.722656 254.328125 404.824219 106.640625 269.636719 C 106.640625 269.636719 206.117188 333.136719 233.371094 277.914062 C 269.976562 203.527344 94.859375 262.800781 9.589844 173.847656 C 9.230469 178.34375 9.050781 182.933594 9.050781 187.699219 C 9.050781 286.367188 89.191406 366.507812 187.859375 366.507812 C 278.882812 366.507812 353.984375 298.78125 365.410156 210.722656 Z M 365.410156 210.722656 " fill-opacity="1" fill-rule="nonzero"/></g><path fill="#22cc9d" d="M 114.015625 130.40625 C 130.925781 130.40625 145.496094 140.929688 151.972656 155.410156 C 143.15625 164.402344 137.582031 176.546875 137.582031 190.21875 L 137.582031 211.984375 C 115.8125 208.835938 93.597656 204.429688 72.730469 196.511719 L 72.730469 171.6875 C 72.730469 149.023438 91.351562 130.40625 114.015625 130.40625 Z M 187.140625 97.125 C 199.820312 97.125 210.164062 107.46875 210.164062 120.152344 C 210.164062 132.832031 199.820312 143.175781 187.140625 143.175781 C 174.457031 143.175781 164.292969 132.832031 164.292969 120.152344 C 164.292969 107.46875 174.457031 97.125 187.140625 97.125 Z M 187.140625 149.023438 C 209.804688 149.023438 228.425781 167.640625 228.425781 190.308594 L 228.425781 226.914062 C 221.226562 223.945312 213.3125 222.148438 206.117188 220.796875 C 186.421875 217.109375 166.003906 215.671875 146.125 213.0625 L 146.125 190.21875 C 146.035156 167.640625 164.472656 149.023438 187.140625 149.023438 Z M 260.445312 78.507812 C 273.125 78.507812 283.46875 88.851562 283.46875 101.53125 C 283.46875 114.214844 273.125 124.558594 260.445312 124.558594 C 247.761719 124.558594 237.417969 114.214844 237.417969 101.53125 C 237.417969 88.851562 247.761719 78.507812 260.445312 78.507812 Z M 260.445312 130.40625 C 283.109375 130.40625 301.546875 149.023438 301.546875 171.6875 L 301.546875 263.429688 C 295.433594 268.738281 289.046875 273.953125 282.390625 278.363281 C 267.28125 288.886719 252.347656 295.453125 237.597656 298.960938 C 241.464844 294.910156 244.792969 290.144531 247.402344 284.929688 C 253.699219 272.246094 257.207031 257.675781 250.011719 244.632812 C 246.863281 238.695312 242.273438 234.46875 236.789062 231.230469 L 236.789062 190.308594 C 236.789062 176.636719 231.480469 164.492188 222.578125 155.5 C 228.964844 140.929688 243.445312 130.40625 260.445312 130.40625 Z M 114.015625 78.507812 C 126.699219 78.507812 137.042969 88.851562 137.042969 101.53125 C 137.042969 114.214844 126.699219 124.558594 114.015625 124.558594 C 101.332031 124.558594 90.988281 114.214844 90.988281 101.53125 C 90.988281 88.851562 101.332031 78.507812 114.015625 78.507812 Z M 114.015625 78.507812 " fill-opacity="1" fill-rule="nonzero"/></svg>